# xmcd
#
# Track frame offsets:
#	150
#	21343
#	40000
#	54638
#	71164
#	86263
#	103652
#	121441
#	138127
#	156224
#	169915
#
# Disc length: 2520 seconds
# Revision: 0
# Processed by: cddbd v1.5.2PL0 Copyright (c) Steve Scherf et al.
# Submitted via: dBpowerAMP V12.0
#
DISCID=9009d60b
DTITLE=Hank Saski - Coming Home
DYEAR=1900
DGENRE=Country
TTITLE0=Three Weeks To Go
TTITLE1=Working Man
TTITLE2=Just One Time
TTITLE3=Somewhere Between
TTITLE4=Forgiving You Was Easy
TTITLE5=For Your Love
TTITLE6=A Mothers Pays
TTITLE7=Will The Circle Be Unbroken
TTITLE8=Here Come The tears
TTITLE9=You Win Again
TTITLE10=Come On Home
EXTD=
EXTT0=
EXTT1=
EXTT2=
EXTT3=
EXTT4=
EXTT5=
EXTT6=
EXTT7=
EXTT8=
EXTT9=
EXTT10=
PLAYORDER=
